# AST/ASF file generated using VICON BodyLanguage
# -----------------------------------------------
:version 1.10
:name VICON
:units
  mass 1.0
  length 0.45
  angle deg
:documentation
   .ast/.asf automatically generated from VICON data using
   VICON BodyBuilder and BodyLanguage model FoxedUp or BRILLIANT.MOD
:root
   order TX TY TZ RX RY RZ
   axis XYZ
   position 0 0 0  
   orientation 0 0 0 
:bonedata
  begin
     id 1 
     name lhipjoint
     direction 0.521452 -0.77106 0.36545 
     length 2.0933 
     axis 0 0 0  XYZ
  end
  begin
     id 2 
     name lfemur
     direction 0.34202 -0.939693 0  
     length 6.83441  
     axis 0 0 20  XYZ
    dof rx ry rz
    limits (-160.0 20.0)
           (-70.0 70.0)
           (-60.0 70.0)
  end
  begin
     id 3 
     name ltibia
     direction 0.34202 -0.939693 0   
     length 7.28749   
     axis 0 0 20   XYZ
    dof rx
    limits (-10.0 170.0)
  end
  begin
     id 4 
     name lfoot
     direction 0.100608 -0.276418 0.955757   
     length 1.52195   
     axis -90 7.62852e-016 20   XYZ
    dof rx rz
    limits (-45.0 90.0)
           (-70.0 20.0)
  end
  begin
     id 5 
     name ltoes
     direction 1.53558e-011 -4.21907e-011 1   
     length 0.770459   
     axis -90 7.62852e-016 20   XYZ
    dof rx
    limits (-90.0 20.0)
  end
  begin
     id 6 
     name rhipjoint
     direction -0.488071 -0.788702 0.373812   
     length 2.04648  
     axis 0 0 0  XYZ 
  end
  begin
     id 7 
     name rfemur
     direction -0.34202 -0.939693 0   
     length 6.92583   
     axis 0 0 -20   XYZ
    dof rx ry rz
    limits (-160.0 20.0)
           (-70.0 70.0)
           (-70.0 60.0)
  end
  begin
     id 8 
     name rtibia
     direction -0.34202 -0.939693 0   
     length 7.41043   
     axis 0 0 -20   XYZ
    dof rx
    limits (-10.0 170.0)
 end
 begin
     id 9 
     name rfoot
     direction -0.0784433 -0.215521 0.973343   
     length 1.67708  
     axis -90 -7.62852e-016 -20   XYZ
    dof rx rz
    limits (-45.0 90.0)
           (-20.0 70.0)
  end
  begin
     id 10 
     name rtoes
     direction -1.53551e-011 -4.21842e-011 1   
     length 0.849787   
     axis -90 -7.62852e-016 -20   XYZ
    dof rx
    limits (-90.0 20.0)
  end
  begin
     id 11 
     name lowerback
     direction -0.0122332 0.997575 -0.0685192   
     length 1.98724   
     axis 0 0 0   XYZ
    dof rx ry rz
    limits (-20.0 45.0)
           (-30.0 30.0)
           (-30.0 30.0)
  end
  begin
     id 12 
     name upperback
     direction 0.0182347 0.999724 -0.0148421   
     length 1.99029   
     axis 0 0 0   XYZ
    dof rx ry rz
    limits (-20.0 45.0)
           (-30.0 30.0)
           (-30.0 30.0)
  end
  begin
     id 13 
     name thorax
     direction 0.0242908 0.99956 0.0170184   
     length 1.99573   
     axis 0 0 0   XYZ
    dof rx ry rz
    limits (-20.0 45.0)
           (-30.0 30.0)
           (-30.0 30.0)
  end
  begin
     id 14 
     name lowerneck
     direction 0.0654488 0.985533 0.156338   
     length 1.4285   
     axis 0 0 0   XYZ
    dof rx ry rz
    limits (-20.0 45.0)
           (-30.0 30.0)
           (-30.0 30.0)
  end
  begin
     id 15 
     name upperneck
     direction -0.02953 0.998556 -0.0448842   
     length 1.44709   
     axis 0 0 0   XYZ
    dof rx ry rz
    limits (-20.0 45.0)
           (-30.0 30.0)
           (-30.0 30.0)
  end
  begin
     id 16
     name head
     direction -0.0155588 0.999386 -0.0314063  
     length 1.44689  
     axis 0 0 0   XYZ
    dof rx ry rz
    limits (-20.0 45.0)
           (-30.0 30.0)
           (-30.0 30.0)
  end
  begin
     id 17 
     name lclavicle
     direction 0.968229 0.236071 -0.0824755  
     length 3.60593  
     axis 0 0 0   XYZ
    dof ry rz
    limits (-20.0 10.0)
           (0.0 20.0)
  end
  begin
     id 18 
     name lhumerus
     direction 1 -4.48968e-011 7.8138e-029   
     length 5.06035   
     axis 180 -30 -90   XYZ
    dof rx ry rz
    limits (-60.0 90.0)
           (-90.0 90.0)
           (-90.0 90.0)
  end
  begin
     id 19
     name lradius
     direction 1 -4.48967e-011 9.02887e-028   
     length 3.1478   
     axis 180 -30 -90   XYZ
    dof rx
    limits (-10.0 170.0)
  end
  begin
     id 20
     name lwrist
     direction 1 -4.48961e-011 7.20928e-028   
     length 1.5739   
     axis -5.52449e-016 90 90   XYZ
    dof ry
    limits (-180.0 0.0)
 end
  begin
     id 21 
     name lhand
     direction 1 -4.48972e-011 1.44186e-027   
     length 0.606747   
     axis -9.20027e-016 90 90   XYZ
    dof rx rz
    limits (-90.0 90.0)
           (-45.0 45.0)
  end
  begin
     id 22 
     name lfingers
     direction 1 -4.48943e-011 2.88371e-027   
     length 0.489175   
     axis -1.84005e-015 90 90   XYZ
    dof rx
    limits (0.0 90.0)
  end
  begin
     id 23
     name lthumb
     direction 0.707107 -6.34917e-011 0.707107   
     length 0.70236   
     axis -90 45 2.85299e-015   XYZ
    dof rx rz
    limits (-45.0 45.0)
           (-45.0 45.0)
  end
  begin
     id 24 
     name rclavicle
     direction -0.978165 0.207816 0.0022268   
     length 3.35425  
     axis 0 0 0   XYZ 
    dof ry rz
    limits (-10.0 20.0)
           (-20.0 0.0)
  end
  begin
     id 25 
     name rhumerus
     direction -1 -4.48964e-011 -4.02159e-027  
     length 5.12273   
     axis 180 30 90   XYZ
    dof rx ry rz
    limits (-90.0 60.0)
           (-90.0 90.0)
           (-90.0 90.0)
  end
  begin
     id 26 
     name rradius
     direction -1 -4.48966e-011 1.62746e-027   
     length 3.422   
     axis 180 30 90   XYZ
    dof rx
    limits (-10.0 170.0)
  end
  begin
     id 27 
     name rwrist
     direction -1 -4.4896e-011 7.20928e-028   
     length 1.711   
     axis -5.52449e-016 -90 -90   XYZ
    dof ry
    limits (-180.0 0.0)
  end
  begin
     id 28
     name rhand
     direction -1 -4.48979e-011 1.44186e-027   
     length 0.704599   
     axis -9.20027e-016 -90 -90   XYZ
    dof rx rz
    limits (-90.0 90.0)
           (-45.0 45.0)
  end
  begin
     id 29
     name rfingers
     direction -1 -4.48962e-011 2.88371e-027   
     length 0.568066   
     axis -1.84005e-015 -90 -90   XYZ
    dof rx
    limits (0.0 90.0)
  end
  begin
     id 30
     name rthumb
     direction -0.707107 -6.34949e-011 0.707107   
     length 0.815633   
     axis -90 -45 -2.85299e-015   XYZ
    dof rx rz
    limits (-45.0 45.0)
           (-45.0 45.0)
  end
:hierarchy
  begin
    root lhipjoint rhipjoint lowerback
    lhipjoint lfemur
    lfemur ltibia
    ltibia lfoot
    lfoot ltoes
    rhipjoint rfemur
    rfemur rtibia
    rtibia rfoot
    rfoot rtoes
    lowerback upperback
    upperback thorax
    thorax lowerneck lclavicle rclavicle
    lowerneck upperneck
    upperneck head
    lclavicle lhumerus
    lhumerus lradius
    lradius lwrist
    lwrist lhand lthumb
    lhand lfingers
    rclavicle rhumerus
    rhumerus rradius
    rradius rwrist
    rwrist rhand rthumb
    rhand rfingers
  end

#!OML:ASF E:\id_vita\Project 1\Capture day 1\Session 1\Male1.ASF
:FULLY-SPECIFIED
:DEGREES
225
root 38.7048 15.7514 0.627587 -14.3698 -76.7339 57.1611
lowerback 30.2853 -4.30649 0.676184
upperback 13.0093 -6.26926 -1.90918
thorax -2.13888 -3.29568 -0.538557
lowerneck -8.46075 -0.321008 6.87458
upperneck 39.373 -4.60235 0.415372
head 15.0801 -1.24219 -1.82132
rclavicle 5.32743e-014 -4.82053e-015
rhumerus 38.7412 11.143 -76.8865
rradius 23.9909
rwrist 52.0488
rhand -32.461 26.8188
rfingers 7.12502
rthumb -5.69384 -3.08466
lclavicle 5.32743e-014 -4.82053e-015
lhumerus 44.8917 -28.0694 71.426
lradius 22.4583
lwrist -41.186
lhand -38.0179 69.7864
lfingers 7.12502
lthumb -11.0565 260.525
rfemur -54.3967 -18.1274 20.1169
rtibia 47.263
rfoot -29.3094 -18.1499
rtoes 0.110574
lfemur -58.9313 -6.62437 -31.7935
ltibia 40.703
lfoot -27.1798 0.759126
ltoes -0.316645
226
root 38.6866 15.7305 0.626363 -13.9453 -76.3755 57.0403
lowerback 29.8862 -4.53335 0.822684
upperback 12.927 -6.49326 -1.8862
thorax -2.07119 -3.39299 -0.550278
lowerneck -8.63941 -0.349272 7.13475
upperneck 39.3052 -4.50766 -0.0838104
head 15.0619 -1.22575 -2.06466
rclavicle -1.78906e-015 -8.17502e-014
rhumerus 38.5865 11.4651 -76.7969
rradius 24.2142
rwrist 51.8557
rhand -32.4257 26.7941
rfingers 7.12502
rthumb -5.65973 -3.11032
lclavicle -1.78906e-015 -8.17502e-014
lhumerus 45.0334 -28.4503 70.7363
lradius 22.4736
lwrist -40.3247
lhand -37.7915 70.023
lfingers 7.12502
lthumb -10.8381 260.277
rfemur -54.6268 -18.1828 19.9273
rtibia 47.4768
rfoot -29.9572 -18.1495
rtoes 1.05203
lfemur -59.3153 -7.16701 -31.7408
ltibia 40.9886
lfoot -27.1958 0.845791
ltoes -0.0602756
227
root 38.6729 15.7082 0.626868 -13.4884 -76.1089 56.8979
lowerback 29.5163 -4.75014 0.95766
upperback 12.8097 -6.70692 -1.84902
thorax -2.05276 -3.48577 -0.540412
lowerneck -8.68961 -0.34132 7.20858
upperneck 39.1941 -4.37313 -0.404363
head 15.0059 -1.2024 -2.19091
rclavicle 1.13307e-014 2.74571e-014
rhumerus 38.3867 11.709 -76.9116
rradius 24.3992
rwrist 52.005
rhand -32.4361 26.802
rfingers 7.12502
rthumb -5.66978 -3.10213
lclavicle 1.13307e-014 2.74571e-014
lhumerus 44.9311 -28.5869 70.3589
lradius 22.5226
lwrist -39.7533
lhand -37.7838 70.265
lfingers 7.12502
lthumb -10.8307 260.034
rfemur -54.9725 -18.251 19.8465
rtibia 47.7955
rfoot -30.0257 -18.665
rtoes 0.0370992
lfemur -59.7262 -7.59254 -31.6733
ltibia 41.2949
lfoot -27.3164 0.896564
ltoes -0.261979
228
root 38.6608 15.6852 0.628393 -13.2914 -75.9354 56.9799
lowerback 29.1721 -4.91669 1.06936
upperback 12.7054 -6.87058 -1.82924
thorax -2.02933 -3.55626 -0.551775
lowerneck -8.61073 -0.262393 7.22275
upperneck 38.8927 -4.13858 -0.570436
head 14.8401 -1.13546 -2.21987
rclavicle 6.75868e-015 8.82107e-015
rhumerus 38.1537 11.8032 -77.1855
rradius 24.5794
rwrist 52.4014
rhand -32.481 26.9253
rfingers 7.12502
rthumb -5.71318 -2.97764
lclavicle 6.75868e-015 8.82107e-015
lhumerus 44.4942 -28.3871 70.5702
lradius 22.6359
lwrist -39.8182
lhand -37.9891 70.8389
lfingers 7.12502
lthumb -11.0288 259.471
rfemur -55.3389 -18.3272 19.7907
rtibia 48.1508
rfoot -29.9767 -19.1711
rtoes -1.23049
lfemur -60.0873 -7.92293 -31.6187
ltibia 41.6131
lfoot -27.5029 1.03562
ltoes -0.406143
229
root 38.6524 15.6571 0.626323 -13.1658 -75.6992 57.368
lowerback 28.536 -5.05303 1.1092
upperback 12.577 -7.01474 -1.82703
thorax -1.89554 -3.61831 -0.571628
lowerneck -8.57172 -0.154678 7.22693
upperneck 38.6608 -3.96699 -0.504666
head 14.7286 -1.0654 -2.16317
rclavicle 3.63776e-014 1.77415e-014
rhumerus 37.7969 11.8354 -77.4268
rradius 24.9367
rwrist 52.6607
rhand -32.4555 26.9839
rfingers 7.12502
rthumb -5.68853 -2.91973
lclavicle 3.63776e-014 1.77415e-014
lhumerus 44.0699 -28.184 70.9131
lradius 22.7573
lwrist -40.0704
lhand -38.1091 71.3737
lfingers 7.12502
lthumb -11.1445 258.942
rfemur -56.0163 -18.3829 19.683
rtibia 48.5436
rfoot -30.2356 -19.3335
rtoes -1.4979
lfemur -60.7284 -8.31593 -31.6311
ltibia 41.9399
lfoot -27.5698 1.01268
ltoes -0.177723
230
root 38.6365 15.6334 0.621074 -13.6236 -75.5413 58.0927
lowerback 28.1695 -5.07719 0.994081
upperback 12.4889 -7.06396 -1.81739
thorax -1.81674 -3.64329 -0.507388
lowerneck -8.57729 -0.119816 7.04813
upperneck 38.6167 -3.98263 -0.20522
head 14.7231 -1.06304 -2.00943
rclavicle 1.86858e-014 5.06901e-015
rhumerus 37.4099 11.8161 -77.5719
rradius 25.2588
rwrist 52.7947
rhand -32.4491 26.9948
rfingers 7.12502
rthumb -5.68233 -2.90906
lclavicle 1.86858e-014 5.06901e-015
lhumerus 43.7587 -28.2423 71.0273
lradius 22.9122
lwrist -40.0204
lhand -38.0562 71.7511
lfingers 7.12502
lthumb -11.0935 258.562
rfemur -56.3465 -18.3534 19.4136
rtibia 48.9019
rfoot -30.6956 -19.1997
rtoes -0.870961
lfemur -61.0703 -8.47786 -31.7948
ltibia 42.2576
lfoot -27.6753 0.979462
ltoes -0.0663144
231
root 38.6224 15.6111 0.622359 -13.8523 -75.2435 58.5396
lowerback 27.8595 -5.16386 1.00267
upperback 12.3897 -7.15517 -1.76115
thorax -1.78258 -3.68427 -0.444655
lowerneck -8.49952 -0.158497 6.90559
upperneck 38.512 -4.01392 -0.11663
head 14.6571 -1.08864 -1.94736
rclavicle -1.13307e-014 9.24349e-015
rhumerus 37.182 11.928 -77.4155
rradius 25.3498
rwrist 52.626
rhand -32.4796 27.0054
rfingers 7.12502
rthumb -5.71177 -2.89758
lclavicle -1.13307e-014 9.24349e-015
lhumerus 43.5077 -28.4265 71.1187
lradius 23.0067
lwrist -39.8311
lhand -38.0443 72.0886
lfingers 7.12502
lthumb -11.082 258.224
rfemur -56.6562 -18.6447 19.2445
rtibia 49.2339
rfoot -30.9161 -19.1671
rtoes -0.6559
lfemur -61.3324 -8.74749 -32.0184
ltibia 42.5642
lfoot -27.7674 1.02844
ltoes -0.378797
232
root 38.6073 15.5953 0.62695 -13.7739 -75.0638 58.4813
lowerback 27.7743 -5.30648 1.15998
upperback 12.3362 -7.28763 -1.74715
thorax -1.82167 -3.74038 -0.482018
lowerneck -8.5119 -0.168021 7.04455
upperneck 38.525 -3.96816 -0.37812
head 14.655 -1.08214 -2.07411
rclavicle 5.4467e-014 -9.54166e-015
rhumerus 37.0009 12.1059 -77.4101
rradius 25.445
rwrist 52.5309
rhand -32.4072 27.0438
rfingers 7.12502
rthumb -5.64191 -2.86107
lclavicle 5.4467e-014 -9.54166e-015
lhumerus 43.1076 -28.2993 71.4334
lradius 23.0604
lwrist -39.9566
lhand -38.1455 72.3928
lfingers 7.12502
lthumb -11.1796 257.925
rfemur -56.7741 -19.027 19.3104
rtibia 49.5068
rfoot -31.0344 -19.1857
rtoes -1.30693
lfemur -61.4011 -8.94948 -32.0668
ltibia 42.8647
lfoot -27.8632 1.21557
ltoes -0.735457
233
root 38.5891 15.5839 0.628572 -13.9293 -75.0477 58.4672
lowerback 27.9513 -5.40496 1.28633
upperback 12.3072 -7.37912 -1.78518
thorax -1.95615 -3.77826 -0.548406
lowerneck -8.4881 -0.179118 7.2377
upperneck 38.4912 -3.9208 -0.65764
head 14.6209 -1.07234 -2.21579
rclavicle 4.51241e-014 -5.11871e-015
rhumerus 36.6786 12.0882 -77.7828
rradius 25.6191
rwrist 52.9263
rhand -32.3922 27.1829
rfingers 7.12502
rthumb -5.6274 -2.7224
lclavicle 4.51241e-014 -5.11871e-015
lhumerus 42.5116 -27.9647 71.9833
lradius 23.1466
lwrist -40.4172
lhand -38.2623 72.6253
lfingers 7.12502
lthumb -11.2922 257.699
rfemur -56.6431 -19.2228 19.3497
rtibia 49.7444
rfoot -31.1632 -19.141
rtoes -2.09042
lfemur -61.2822 -9.01895 -32.0108
ltibia 43.1702
lfoot -28.0488 1.46046
ltoes -0.855545
234
root 38.5695 15.5715 0.626564 -13.9731 -75.0499 58.3959
lowerback 28.026 -5.45603 1.37932
upperback 12.2689 -7.41504 -1.75118
thorax -2.0396 -3.79259 -0.543358
lowerneck -8.48894 -0.191515 7.03783
upperneck 38.4702 -3.93948 -0.523665
head 14.6171 -1.09273 -2.12733
rclavicle -6.97734e-014 -3.65267e-015
rhumerus 36.398 11.9862 -78.1448
rradius 25.7326
rwrist 53.4663
rhand -32.3737 27.2667
rfingers 7.12502
rthumb -5.60957 -2.63904
lclavicle -6.97734e-014 -3.65267e-015
lhumerus 42.082 -27.7836 72.4162
lradius 23.1916
lwrist -40.6945
lhand -38.4211 72.9523
lfingers 7.12502
lthumb -11.4454 257.38
rfemur -56.5428 -19.3303 19.4185
rtibia 49.9438
rfoot -31.2519 -19.2733
rtoes -2.77222
lfemur -61.2357 -9.11445 -31.888
ltibia 43.4817
lfoot -28.224 1.74994
ltoes -1.29131
235
root 38.5496 15.5603 0.625583 -13.6411 -75.0692 57.9883
lowerback 27.9557 -5.49662 1.54282
upperback 12.2891 -7.42296 -1.6542
thorax -1.98932 -3.7943 -0.535068
lowerneck -8.6296 -0.214046 6.75771
upperneck 38.4113 -3.96617 -0.345042
head 14.6288 -1.11934 -2.00888
rclavicle -6.50026e-014 -4.7435e-014
rhumerus 36.3711 11.9867 -78.2197
rradius 25.7058
rwrist 53.7633
rhand -32.3617 27.2607
rfingers 7.12502
rthumb -5.59795 -2.64531
lclavicle -6.50026e-014 -4.7435e-014
lhumerus 41.9183 -27.7346 72.5803
lradius 23.2636
lwrist -40.6628
lhand -38.657 73.364
lfingers 7.12502
lthumb -11.6729 256.981
rfemur -56.4837 -19.4512 19.6086
rtibia 50.1172
rfoot -31.4717 -19.3488
rtoes -3.19065
lfemur -61.251 -9.208 -31.6744
ltibia 43.7973
lfoot -28.3093 2.01806
ltoes -1.71954
236
root 38.5301 15.5518 0.626915 -13.3704 -75.0506 57.5443
lowerback 27.9823 -5.54263 1.68468
upperback 12.3279 -7.44384 -1.56005
thorax -1.96034 -3.80345 -0.506757
lowerneck -8.7216 -0.256357 6.67087
upperneck 38.3886 -3.99644 -0.370672
head 14.6364 -1.14544 -2.00916
rclavicle -4.7112e-014 1.66482e-015
rhumerus 36.3938 12.2506 -77.9218
rradius 25.6027
rwrist 53.6881
rhand -32.3437 27.2096
rfingers 7.12502
rthumb -5.58057 -2.69691
lclavicle -4.7112e-014 1.66482e-015
lhumerus 41.832 -27.7751 72.57
lradius 23.3806
lwrist -40.4517
lhand -38.8258 73.8157
lfingers 7.12502
lthumb -11.8357 256.539
rfemur -56.2724 -19.5799 19.6952
rtibia 50.2804
rfoot -31.7844 -19.2485
rtoes -3.30957
lfemur -61.1482 -9.27595 -31.5159
ltibia 44.1204
lfoot -28.5349 2.04464
ltoes -1.67344
